<svg width="20" height="20" viewBox="0 0 20 20" fill="none" xmlns="http://www.w3.org/2000/svg">
<path d="M12.1644 7.29289C12.5549 6.90237 13.188 6.90237 13.5786 7.29289C13.9691 7.68342 13.9691 8.31658 13.5786 8.70711L9.33593 12.9497C8.9454 13.3403 8.31224 13.3403 7.92171 12.9497C7.87561 12.9036 7.83495 12.8542 7.79974 12.8021L6.4829 11.4853C6.09237 11.0947 6.09237 10.4616 6.4829 10.071C6.87342 9.68052 7.50658 9.68052 7.89711 10.071L8.64165 10.8156L12.1644 7.29289Z" fill="#003939"/>
<path d="M17.2783 4.31232C12.6639 4.0716 10.6292 1.32074 10.6099 1.29385C10.3334 0.901614 9.6668 0.902926 9.39157 1.29253C9.37231 1.32074 7.33695 4.07095 2.72383 4.31232C2.51632 4.32347 2.31999 4.42382 2.18269 4.59239C2.04725 4.75899 1.98325 4.97872 2.00375 5.19582C2.05594 5.72317 3.34078 18.1263 9.89109 18.9908C9.91159 18.9948 9.97993 19 10.0004 19C10.016 19 10.0793 18.9954 10.0942 18.9934C16.6601 18.1263 17.9449 5.72317 17.9965 5.1932C18.0164 4.9761 17.9511 4.75702 17.8163 4.59042C17.6815 4.42448 17.4852 4.32347 17.2783 4.31232ZM10.0003 3.53461C11.0631 4.47473 12.9733 5.74301 15.8509 6.17664C15.6649 7.3814 15.289 9.34258 14.6009 11.3052C14.0657 12.8314 13.3806 14.2434 12.5359 15.289C11.7522 16.2592 10.9175 16.815 9.99989 16.9842C9.08175 16.8189 8.24558 16.2641 7.45946 15.2893C6.61654 14.2441 5.93263 12.8323 5.39828 11.306C4.71109 9.34321 4.33544 7.38189 4.14938 6.17674C7.01626 5.74474 8.92766 4.48369 10.0003 3.53461Z" fill="#003939"/>
</svg>
