<svg width="20" height="20" viewBox="0 0 20 20" fill="none" xmlns="http://www.w3.org/2000/svg">
<path d="M10 5C10.5523 5 11 5.44772 11 6V6.12695C11.5494 6.27613 11.9724 6.54075 12.2842 6.83301C12.5148 7.04919 12.6718 7.2679 12.7734 7.43945C12.8244 7.5255 12.8624 7.60147 12.8896 7.66113C12.9032 7.6908 12.9142 7.71674 12.9229 7.73828L12.9424 7.79004C13.1274 8.31041 12.8553 8.88236 12.335 9.06738C11.8246 9.24866 11.2651 8.9903 11.0693 8.48926C11.0668 8.48412 11.0612 8.47336 11.0527 8.45898C11.0294 8.41961 10.9854 8.35706 10.916 8.29199C10.7955 8.17909 10.5379 8 10 8C9.38946 8.00005 9.17224 8.1676 9.10742 8.23242C9.03403 8.30589 9.00163 8.40314 9 8.49316L9.13477 8.72168C9.22814 8.82283 9.45271 8.99994 10 9C10.9893 9 11.7724 9.28319 12.3076 9.81836C12.8319 10.3428 13 10.9922 13 11.5C13 11.9528 12.8045 12.5695 12.335 13.0781C12.0049 13.4357 11.5606 13.7183 11 13.8721V14C11 14.5523 10.5523 15 10 15C9.44783 14.9999 9 14.5522 9 14V13.873C8.45082 13.7239 8.02847 13.4591 7.7168 13.167C7.4862 12.9508 7.3292 12.7321 7.22754 12.5605C7.1765 12.4744 7.13862 12.3986 7.11133 12.3389C7.0977 12.309 7.08586 12.2833 7.07715 12.2617L7.05762 12.21C6.87274 11.6897 7.14482 11.1177 7.66504 10.9326C8.17558 10.7511 8.73593 11.0095 8.93164 11.5107C8.93415 11.5159 8.9397 11.5266 8.94824 11.541C8.97158 11.5804 9.0147 11.643 9.08398 11.708C9.20438 11.8209 9.46203 11.9999 10 12C10.5473 12 10.7718 11.8229 10.8652 11.7217C10.9553 11.6241 10.9852 11.5303 10.9951 11.499L10.8936 11.2324C10.8287 11.1676 10.6107 11 10 11C8.94762 10.9999 8.17161 10.6269 7.66504 10.0781C7.19571 9.56953 7 8.95276 7 8.5C7 7.99216 7.16894 7.34286 7.69336 6.81836C8.03283 6.47889 8.47179 6.2409 9 6.1123V6C9 5.63276 9.19813 5.31157 9.49316 5.1377L10 5Z" fill="#003939"/>
<path fill-rule="evenodd" clip-rule="evenodd" d="M10 1C14.9706 1 19 5.02944 19 10C19 14.9706 14.9706 19 10 19C5.02944 19 1 14.9706 1 10C1 5.02944 5.02944 1 10 1ZM10 3C6.13401 3 3 6.13401 3 10C3 13.866 6.13401 17 10 17C13.866 17 17 13.866 17 10C17 6.13401 13.866 3 10 3Z" fill="#003939"/>
</svg>
