<svg width="20" height="20" viewBox="0 0 20 20" fill="none" xmlns="http://www.w3.org/2000/svg">
<path d="M18.9797 9.8076C18.993 9.86971 19 9.93402 19 9.99989C19 10.5271 18.5523 10.9545 18 10.9545H17.238L18.6598 12.1462C19.0748 12.4941 19.1158 13.0972 18.7514 13.4933C18.387 13.8895 17.7552 13.9287 17.3402 13.5808L14.2068 10.9545H11.7321L12.9694 13.0003L16.9189 14.2775C17.442 14.4466 17.7224 14.9885 17.5452 15.4878C17.368 15.9871 16.8003 16.2548 16.2772 16.0856L14.485 15.5061L14.8661 16.1361C15.1422 16.5926 14.9783 17.1764 14.5 17.44C14.3581 17.5183 14.2043 17.5595 14.0511 17.5669C13.8172 17.5781 13.5845 17.5104 13.3966 17.3749C13.293 17.3001 13.203 17.2048 13.134 17.0906L12.7529 16.4606L12.3826 18.2319C12.2746 18.7489 11.7479 19.0844 11.2063 18.9812C10.6647 18.8781 10.3132 18.3753 10.4213 17.8583L11.2373 13.9548L10 11.9092L8.7627 13.9549L9.57873 17.8584C9.68681 18.3754 9.33536 18.8781 8.79376 18.9813C8.25215 19.0845 7.72548 18.749 7.6174 18.232L7.2471 16.4607L6.86605 17.0907C6.58991 17.5472 5.97832 17.7037 5.50002 17.4401C5.32719 17.3448 5.19541 17.2078 5.11061 17.05C4.96071 16.7712 4.95758 16.4276 5.13395 16.136L5.51496 15.5061L3.72283 16.0856C3.19975 16.2548 2.63205 15.9871 2.45484 15.4878C2.27764 14.9885 2.55803 14.4466 3.08111 14.2775L7.03056 13.0003L8.26792 10.9545H5.79331L2.65982 13.5809C2.24481 13.9287 1.61298 13.8896 1.24858 13.4934C0.884178 13.0973 0.925203 12.4942 1.34021 12.1463L2.76212 10.9545H2.00001C1.48547 10.9545 1.06169 10.5836 1.00617 10.1065C1.0021 10.0715 1 10.0359 1 9.99989C1 9.4727 1.44772 9.04533 2 9.04533H2.76203L1.34021 7.85362C0.925201 7.50578 0.884176 6.90266 1.24858 6.50651C1.61298 6.11037 2.24481 6.07121 2.65982 6.41905L5.79322 9.04533H8.26787L7.03062 6.99973L3.08109 5.72254C2.558 5.55339 2.27761 5.01149 2.45482 4.51218C2.63203 4.01286 3.19972 3.74522 3.72281 3.91437L5.51502 4.49393L5.13396 3.86391C4.85782 3.40736 5.02169 2.82356 5.49999 2.55997C5.76436 2.41427 6.06946 2.39689 6.33613 2.4876C6.55192 2.561 6.74254 2.70516 6.86605 2.90937L7.24709 3.53935L7.61737 1.76806C7.72545 1.25106 8.25212 0.915589 8.79373 1.01876C9.33534 1.12192 9.68678 1.62466 9.5787 2.14165L8.76269 6.04515L9.99999 8.09083L11.2373 6.04514L10.4213 2.1416C10.3132 1.6246 10.6646 1.12186 11.2062 1.0187C11.7479 0.915535 12.2745 1.25101 12.3826 1.768L12.7529 3.53934L13.134 2.90933C13.4101 2.45277 14.0217 2.29634 14.5 2.55994C14.6709 2.65416 14.8017 2.7893 14.8866 2.94491C15.0392 3.22465 15.0435 3.57058 14.866 3.86397L14.485 4.49392L16.2772 3.91438C16.8003 3.74523 17.3679 4.01288 17.5452 4.51219C17.7224 5.0115 17.442 5.5534 16.9189 5.72255L12.9694 6.99971L11.7322 9.04533H14.2067L17.3402 6.41897C17.7552 6.07113 18.387 6.11029 18.7514 6.50644C19.1158 6.90259 19.0748 7.50571 18.6598 7.85355L17.2379 9.04533H18C18.4833 9.04533 18.8865 9.37258 18.9797 9.8076Z" fill="#003939"/>
</svg>
