<svg width="20" height="20" viewBox="0 0 20 20" fill="none" xmlns="http://www.w3.org/2000/svg">
<path fill-rule="evenodd" clip-rule="evenodd" d="M3.82114 2.21215C4.1363 1.47679 4.85937 1 5.65943 1H6C6.55228 1 7 1.44772 7 2C7 2.55228 6.55228 3 6 3L5.65943 3L3.08797 9H5.01937C5.62694 9 6.20157 9.27618 6.58111 9.75061L7.98062 11.5H12.0194L13.4189 9.75061C13.7984 9.27618 14.3731 9 14.9806 9H16.912L14.3406 3H14C13.4477 3 13 2.55228 13 2C13 1.44772 13.4477 1 14 1H14.3406C15.1407 1 15.8637 1.47679 16.1789 2.21216L18.8383 8.41742C18.945 8.66637 19 8.93441 19 9.20526V17C19 18.1046 18.1046 19 17 19H3C1.89543 19 1 18.1046 1 17V9.20526C1 8.9344 1.05502 8.66637 1.16171 8.41742L3.82114 2.21215ZM3 11H5.01937L6.41889 12.7494C6.79843 13.2238 7.37306 13.5 7.98062 13.5H12.0194C12.6269 13.5 13.2016 13.2238 13.5811 12.7494L14.9806 11H17V17H3V11Z" fill="#003939"/>
<path d="M9 4.41424V9C9 9.55229 9.44772 10 10 10C10.5523 10 11 9.55229 11 9V4.41424L11.7929 5.20714C12.1834 5.59766 12.8166 5.59766 13.2071 5.20714C13.5976 4.81661 13.5976 4.18345 13.2071 3.79292L10.7071 1.29292C10.3166 0.902396 9.68342 0.902396 9.29289 1.29292L6.79289 3.79292C6.40237 4.18345 6.40237 4.81661 6.79289 5.20714C7.18342 5.59766 7.81658 5.59766 8.20711 5.20714L9 4.41424Z" fill="#003939"/>
</svg>
