<svg width="20" height="20" viewBox="0 0 20 20" fill="none" xmlns="http://www.w3.org/2000/svg">
<path d="M4 10C4 9.44771 4.44772 9 5 9H15C15.5523 9 16 9.44772 16 10V15C16 15.5523 15.5523 16 15 16H5C4.44772 16 4 15.5523 4 15V10ZM6 14H14V11H6V14Z" fill="#003939"/>
<path d="M4 1C2.34315 1 1 2.34315 1 4V16C1 17.6569 2.34315 19 4 19H16C17.6569 19 19 17.6569 19 16V4C19 2.34315 17.6569 1 16 1H4ZM11 3V4C11 4.55228 11.4477 5 12 5H14C14.5523 5 15 4.55228 15 4V3H16C16.5523 3 17 3.44772 17 4V6H3V4C3 3.44772 3.44772 3 4 3H5V4C5 4.55228 5.44772 5 6 5H8C8.55228 5 9 4.55228 9 4V3H11ZM3 16V8H17V16C17 16.5523 16.5523 17 16 17H4C3.44772 17 3 16.5523 3 16Z" fill="#003939"/>
</svg>
